<?xml version="1.0" encoding="UTF-8" standalone="no"?>
<svg
   xmlns:dc="http://purl.org/dc/elements/1.1/"
   xmlns:cc="http://creativecommons.org/ns#"
   xmlns:rdf="http://www.w3.org/1999/02/22-rdf-syntax-ns#"
   xmlns:svg="http://www.w3.org/2000/svg"
   xmlns="http://www.w3.org/2000/svg"
   viewBox="0 0 2560 1440"
   height="1440"
   width="2560"
   xml:space="preserve"
   id="svg2"
   version="1.1"><metadata
     id="metadata8"><rdf:RDF><cc:Work
         rdf:about=""><dc:format>image/svg+xml</dc:format><dc:type
           rdf:resource="http://purl.org/dc/dcmitype/StillImage" /></cc:Work></rdf:RDF></metadata><defs
     id="defs6"><clipPath
       id="clipPath20"
       clipPathUnits="userSpaceOnUse"><path
         id="path18"
         d="M 0,0 H 1920 V 1080 H 0 Z" /></clipPath><clipPath
       id="clipPath42"
       clipPathUnits="userSpaceOnUse"><path
         id="path40"
         d="m 1228.223,339.688 h 313.6349 V 465.8229 H 1228.223 Z" /></clipPath><clipPath
       id="clipPath52"
       clipPathUnits="userSpaceOnUse"><path
         id="path50"
         d="M 822.2561,266.215 H 1135.891 V 392.3499 H 822.2561 Z" /></clipPath><clipPath
       id="clipPath62"
       clipPathUnits="userSpaceOnUse"><path
         id="path60"
         d="M 416.2888,310.6378 H 729.9237 V 436.7727 H 416.2888 Z" /></clipPath><clipPath
       id="clipPath72"
       clipPathUnits="userSpaceOnUse"><path
         id="path70"
         d="m 1348.905,521.5136 h 313.6349 V 647.6485 H 1348.905 Z" /></clipPath><clipPath
       id="clipPath82"
       clipPathUnits="userSpaceOnUse"><path
         id="path80"
         d="m 1228.223,703.3392 h 313.6349 V 829.4741 H 1228.223 Z" /></clipPath><clipPath
       id="clipPath92"
       clipPathUnits="userSpaceOnUse"><path
         id="path90"
         d="M 416.2888,703.3392 H 729.9237 V 829.4741 H 416.2888 Z" /></clipPath><clipPath
       id="clipPath102"
       clipPathUnits="userSpaceOnUse"><path
         id="path100"
         d="m 485.9881,333.9978 h 174.2363 v 96.00626 H 485.9881 Z" /></clipPath><clipPath
       id="clipPath122"
       clipPathUnits="userSpaceOnUse"><path
         id="path120"
         d="m 883.8107,284.0125 h 190.5258 v 96.00626 H 883.8107 Z" /></clipPath><clipPath
       id="clipPath142"
       clipPathUnits="userSpaceOnUse"><path
         id="path140"
         d="m 1297.923,359.4158 h 172.3103 v 96.00626 H 1297.923 Z" /></clipPath><clipPath
       id="clipPath162"
       clipPathUnits="userSpaceOnUse"><path
         id="path160"
         d="m 1419.451,539.5559 h 172.5488 v 96.00626 H 1419.451 Z" /></clipPath><clipPath
       id="clipPath182"
       clipPathUnits="userSpaceOnUse"><path
         id="path180"
         d="m 1280.646,719.2065 h 177.4849 v 96.00626 H 1280.646 Z" /></clipPath><clipPath
       id="clipPath202"
       clipPathUnits="userSpaceOnUse"><path
         id="path200"
         d="m 803.1826,778.9082 h 313.6349 V 905.0431 H 803.1826 Z" /></clipPath><clipPath
       id="clipPath212"
       clipPathUnits="userSpaceOnUse"><path
         id="path210"
         d="m 871.0371,796.7058 h 177.9258 v 96.00626 H 871.0371 Z" /></clipPath><clipPath
       id="clipPath232"
       clipPathUnits="userSpaceOnUse"><path
         id="path230"
         d="m 486.7871,719.2065 h 178.6915 v 96.00626 H 486.7871 Z" /></clipPath><clipPath
       id="clipPath252"
       clipPathUnits="userSpaceOnUse"><path
         id="path250"
         d="m 459.1867,431.4789 h 64.33581 v 71.18799 H 459.1867 Z" /></clipPath><clipPath
       id="clipPath258"
       clipPathUnits="userSpaceOnUse"><path
         id="path256"
         d="m 463.9485,415.7726 h 74.8122 v 82.6005 h -74.8122 z" /></clipPath><clipPath
       id="clipPath262"
       clipPathUnits="userSpaceOnUse"><path
         id="path260"
         d="m 459,431 h 65 v 72 h -65 z" /></clipPath><clipPath
       id="clipPath286"
       clipPathUnits="userSpaceOnUse"><path
         id="path284"
         d="m 428.8441,621.2248 h 77.03923 v 87.43614 H 428.8441 Z" /></clipPath><clipPath
       id="clipPath292"
       clipPathUnits="userSpaceOnUse"><path
         id="path290"
         d="m 413.6458,605.4725 h 87.4358 v 98.9409 h -87.4358 z" /></clipPath><clipPath
       id="clipPath296"
       clipPathUnits="userSpaceOnUse"><path
         id="path294"
         d="m 428,621 h 78 v 88 h -78 z" /></clipPath><clipPath
       id="clipPath320"
       clipPathUnits="userSpaceOnUse"><path
         id="path318"
         d="m 629.9969,821.8107 h 173.0966 v 64.02417 H 629.9969 Z" /></clipPath><clipPath
       id="clipPath326"
       clipPathUnits="userSpaceOnUse"><path
         id="path324"
         d="m 613.9614,806.8372 h 187.403 v 78.912 h -187.403 z" /></clipPath><clipPath
       id="clipPath330"
       clipPathUnits="userSpaceOnUse"><path
         id="path328"
         d="m 629,821 h 175 v 65 H 629 Z" /></clipPath><clipPath
       id="clipPath354"
       clipPathUnits="userSpaceOnUse"><path
         id="path352"
         d="m 1134.304,328.9145 h 102.0469 v 64.05554 H 1134.304 Z" /></clipPath><clipPath
       id="clipPath360"
       clipPathUnits="userSpaceOnUse"><path
         id="path358"
         d="m 1137.749,330.6053 h 115.158 v 77.003 h -115.158 z" /></clipPath><clipPath
       id="clipPath364"
       clipPathUnits="userSpaceOnUse"><path
         id="path362"
         d="m 1134,328 h 103 v 65 h -103 z" /></clipPath><clipPath
       id="clipPath388"
       clipPathUnits="userSpaceOnUse"><path
         id="path386"
         d="m 1419.451,461.1324 h 45.6327 v 62.52394 h -45.6327 z" /></clipPath><clipPath
       id="clipPath394"
       clipPathUnits="userSpaceOnUse"><path
         id="path392"
         d="m 1422.638,464.8229 h 57.231 v 75.1429 h -57.231 z" /></clipPath><clipPath
       id="clipPath398"
       clipPathUnits="userSpaceOnUse"><path
         id="path396"
         d="m 1419,461 h 47 v 63 h -47 z" /></clipPath><clipPath
       id="clipPath422"
       clipPathUnits="userSpaceOnUse"><path
         id="path420"
         d="m 727.9658,321.3724 h 97.23199 v 51.80022 H 727.9658 Z" /></clipPath><clipPath
       id="clipPath428"
       clipPathUnits="userSpaceOnUse"><path
         id="path426"
         d="m 731.0029,306.9386 h 111.1578 v 67.06 H 731.0029 Z" /></clipPath><clipPath
       id="clipPath432"
       clipPathUnits="userSpaceOnUse"><path
         id="path430"
         d="m 727,321 h 99 v 53 h -99 z" /></clipPath><clipPath
       id="clipPath456"
       clipPathUnits="userSpaceOnUse"><path
         id="path454"
         d="m 1114.887,802.4412 h 117.254 v 74.67227 h -117.254 z" /></clipPath><clipPath
       id="clipPath462"
       clipPathUnits="userSpaceOnUse"><path
         id="path460"
         d="m 1098.399,804.5397 h 130.231 v 87.2501 h -130.231 z" /></clipPath><clipPath
       id="clipPath466"
       clipPathUnits="userSpaceOnUse"><path
         id="path464"
         d="m 1114,802 h 119 v 76 h -119 z" /></clipPath><clipPath
       id="clipPath490"
       clipPathUnits="userSpaceOnUse"><path
         id="path488"
         d="m 1411.373,639.425 h 57.2324 v 67.32125 h -57.2324 z" /></clipPath><clipPath
       id="clipPath496"
       clipPathUnits="userSpaceOnUse"><path
         id="path494"
         d="m 1396.271,643.556 h 67.436 v 79.0591 h -67.436 z" /></clipPath><clipPath
       id="clipPath500"
       clipPathUnits="userSpaceOnUse"><path
         id="path498"
         d="m 1411,639 h 58 v 68 h -58 z" /></clipPath><clipPath
       id="clipPath524"
       clipPathUnits="userSpaceOnUse"><path
         id="path522"
         d="M 242.3088,499.6664 H 555.9437 V 625.8013 H 242.3088 Z" /></clipPath><clipPath
       id="clipPath534"
       clipPathUnits="userSpaceOnUse"><path
         id="path532"
         d="m 313.7716,517.464 h 170.7092 v 96.00626 H 313.7716 Z" /></clipPath></defs><g
     transform="matrix(1.3333333,0,0,-1.3333333,0,1440)"
     id="g10"><g
       id="g12" /><g
       id="g14"><g
         clip-path="url(#clipPath20)"
         id="g16"><path
           id="path22"
           style="fill:#ffffff;fill-opacity:1;fill-rule:nonzero;stroke:none"
           d="M 0,1080 H 1920 V 0 H 0 Z" /><g
           transform="translate(618.0356,980.5047)"
           id="g24"><text
             id="text28"
             style="font-variant:normal;font-weight:500;font-size:46px;font-family:HelveticaNeue;-inkscape-font-specification:HelveticaNeue-Medium;writing-mode:lr-tb;fill:#000000;fill-opacity:1;fill-rule:nonzero;stroke:none"
             transform="scale(1,-1)"><tspan
               id="tspan26"
               y="0"
               x="0 40.894001 67.297997 102.258 130.364 154.23801 167.026 196.834 209.62199 240.304 251.39 276.966 292.284 306.77399 334.052 350.24399 390.26401 403.052 432.03201 458.436 485.71399 496.79999 523.20398 548.78003 574.35602 590.54797 601.63397 628.03802 655.31598">MLOps &amp; Platform Engineering </tspan></text>
</g><g
           transform="translate(556.5466,947.6006)"
           id="g30"><text
             id="text34"
             style="font-variant:normal;font-weight:500;font-size:22px;font-family:HelveticaNeue;-inkscape-font-specification:HelveticaNeue-Medium;writing-mode:lr-tb;fill:#000000;fill-opacity:1;fill-rule:nonzero;stroke:none"
             transform="scale(1,-1)"><tspan
               id="tspan32"
               y="0"
               x="0 15.884 28.115999 35.442001 47.674 69.674004 82.874001 93.896004 101.64 113.872 119.174 131.802 153.802 167.002 180.862 192.28 204.51199 209.814 221.23199 243.23199 256.43201 271.92001 284.15201 297.198 302.5 313.918 321.24399 328.98801 340.40601 362.40601 375.60599 391.48999 403.72198 417.164 422.466 435.51199 446.92999 468.92999 482.13 501.68799 514.73401 527.362 532.664 539.98999 553.03601 560.78003 582.78003 595.97998 611.46802 623.70001 631.026 638.77002 651.00201 656.30402 668.93201 690.93201 704.13202 720.83002 733.87598 745.29401 757.526 765.66602">Data—&gt;Train—&gt;Evals—&gt;Registry—&gt;Deploy—&gt;Monitor—&gt;Retrain—&gt;Govern</tspan></text>
</g></g></g><g
       id="g36"><g
         clip-path="url(#clipPath42)"
         id="g38"><path
           id="path44"
           style="fill:#00a1ff;fill-opacity:0.50260004;fill-rule:nonzero;stroke:none"
           d="m 1252.153,464.8229 h 265.775 c 6.729,0 10.766,0 13.458,-1.1237 3.88,-1.4122 6.936,-4.4687 8.349,-8.3487 1.123,-2.6915 1.123,-6.7288 1.123,-13.4576 V 363.618 c 0,-6.7288 0,-10.7661 -1.123,-13.4576 -1.413,-3.88 -4.469,-6.9365 -8.349,-8.3487 -2.692,-1.1237 -6.729,-1.1237 -13.458,-1.1237 h -265.775 c -6.728,0 -10.766,0 -13.457,1.1237 -3.88,1.4122 -6.937,4.4687 -8.349,8.3487 -1.124,2.6915 -1.124,6.7288 -1.124,13.4576 v 78.2749 c 0,6.7288 0,10.7661 1.124,13.4576 1.412,3.88 4.469,6.9365 8.349,8.3487 2.691,1.1237 6.729,1.1237 13.457,1.1237 z" /></g></g><g
       id="g46"><g
         clip-path="url(#clipPath52)"
         id="g48"><path
           id="path54"
           style="fill:#00a1ff;fill-opacity:0.49690001;fill-rule:nonzero;stroke:none"
           d="m 846.1861,391.3499 h 265.7749 c 6.729,0 10.766,0 13.458,-1.1237 3.88,-1.4122 6.936,-4.4687 8.348,-8.3488 1.124,-2.6915 1.124,-6.7287 1.124,-13.4575 v -78.275 c 0,-6.7287 0,-10.766 -1.124,-13.4575 -1.412,-3.8801 -4.468,-6.9365 -8.348,-8.3488 -2.692,-1.1236 -6.729,-1.1236 -13.458,-1.1236 H 846.1861 c -6.7288,0 -10.7661,0 -13.4576,1.1236 -3.88,1.4123 -6.9365,4.4687 -8.3487,8.3488 -1.1237,2.6915 -1.1237,6.7288 -1.1237,13.4575 v 78.275 c 0,6.7288 0,10.766 1.1237,13.4575 1.4122,3.8801 4.4687,6.9366 8.3487,8.3488 2.6915,1.1237 6.7288,1.1237 13.4576,1.1237 z" /></g></g><g
       id="g56"><g
         clip-path="url(#clipPath62)"
         id="g58"><path
           id="path64"
           style="fill:#00a1ff;fill-opacity:0.50129999;fill-rule:nonzero;stroke:none"
           d="m 440.2188,435.7726 h 265.7749 c 6.7288,0 10.7661,0 13.4576,-1.1236 3.88,-1.4122 6.9365,-4.4687 8.3487,-8.3488 1.1237,-2.6915 1.1237,-6.7287 1.1237,-13.4575 v -78.275 c 0,-6.7287 0,-10.766 -1.1237,-13.4575 -1.4122,-3.8801 -4.4687,-6.9365 -8.3487,-8.3488 -2.6915,-1.1236 -6.7288,-1.1236 -13.4576,-1.1236 H 440.2188 c -6.7288,0 -10.7661,0 -13.4576,1.1236 -3.88,1.4123 -6.9365,4.4687 -8.3487,8.3488 -1.1237,2.6915 -1.1237,6.7288 -1.1237,13.4575 v 78.275 c 0,6.7288 0,10.766 1.1237,13.4575 1.4122,3.8801 4.4687,6.9366 8.3487,8.3488 2.6915,1.1236 6.7288,1.1236 13.4576,1.1236 z" /></g></g><g
       id="g66"><g
         clip-path="url(#clipPath72)"
         id="g68"><path
           id="path74"
           style="fill:#00a1ff;fill-opacity:0.4994;fill-rule:nonzero;stroke:none"
           d="m 1372.835,646.6485 h 265.775 c 6.728,0 10.766,0 13.457,-1.1237 3.88,-1.4122 6.937,-4.4687 8.349,-8.3487 1.124,-2.6915 1.124,-6.7288 1.124,-13.4576 v -78.2749 c 0,-6.7288 0,-10.7661 -1.124,-13.4576 -1.412,-3.88 -4.469,-6.9365 -8.349,-8.3487 -2.691,-1.1237 -6.729,-1.1237 -13.457,-1.1237 h -265.775 c -6.729,0 -10.766,0 -13.458,1.1237 -3.88,1.4122 -6.936,4.4687 -8.349,8.3487 -1.123,2.6915 -1.123,6.7288 -1.123,13.4576 v 78.2749 c 0,6.7288 0,10.7661 1.123,13.4576 1.413,3.88 4.469,6.9365 8.349,8.3487 2.692,1.1237 6.729,1.1237 13.458,1.1237 z" /></g></g><g
       id="g76"><g
         clip-path="url(#clipPath82)"
         id="g78"><path
           id="path84"
           style="fill:#00a1ff;fill-opacity:0.49930001;fill-rule:nonzero;stroke:none"
           d="m 1252.153,828.4741 h 265.775 c 6.729,0 10.766,0 13.458,-1.1236 3.88,-1.4123 6.936,-4.4687 8.349,-8.3488 1.123,-2.6915 1.123,-6.7288 1.123,-13.4576 v -78.2749 c 0,-6.7288 0,-10.766 -1.123,-13.4576 -1.413,-3.88 -4.469,-6.9365 -8.349,-8.3487 -2.692,-1.1237 -6.729,-1.1237 -13.458,-1.1237 h -265.775 c -6.728,0 -10.766,0 -13.457,1.1237 -3.88,1.4122 -6.937,4.4687 -8.349,8.3487 -1.124,2.6916 -1.124,6.7288 -1.124,13.4576 v 78.2749 c 0,6.7288 0,10.7661 1.124,13.4576 1.412,3.8801 4.469,6.9365 8.349,8.3488 2.691,1.1236 6.729,1.1236 13.457,1.1236 z" /></g></g><g
       id="g86"><g
         clip-path="url(#clipPath92)"
         id="g88"><path
           id="path94"
           style="fill:#00a1ff;fill-opacity:0.49720004;fill-rule:nonzero;stroke:none"
           d="m 440.2188,828.4741 h 265.7749 c 6.7288,0 10.7661,0 13.4576,-1.1236 3.88,-1.4123 6.9365,-4.4687 8.3487,-8.3488 1.1237,-2.6915 1.1237,-6.7288 1.1237,-13.4576 v -78.2749 c 0,-6.7288 0,-10.766 -1.1237,-13.4576 -1.4122,-3.88 -4.4687,-6.9365 -8.3487,-8.3487 -2.6915,-1.1237 -6.7288,-1.1237 -13.4576,-1.1237 H 440.2188 c -6.7288,0 -10.7661,0 -13.4576,1.1237 -3.88,1.4122 -6.9365,4.4687 -8.3487,8.3487 -1.1237,2.6916 -1.1237,6.7288 -1.1237,13.4576 v 78.2749 c 0,6.7288 0,10.7661 1.1237,13.4576 1.4122,3.8801 4.4687,6.9365 8.3487,8.3488 2.6915,1.1236 6.7288,1.1236 13.4576,1.1236 z" /></g></g><g
       id="g96"><g
         clip-path="url(#clipPath102)"
         id="g98"><g
           transform="translate(516.5648,377.9929)"
           id="g104"><text
             id="text108"
             style="font-variant:normal;font-weight:normal;font-size:35px;font-family:ChalkboardSE;-inkscape-font-specification:ChalkboardSE-Regular;writing-mode:lr-tb;fill:#000000;fill-opacity:1;fill-rule:nonzero;stroke:none"
             transform="scale(1,-1)"><tspan
               id="tspan106"
               y="0"
               x="0 21.8505 38.695999 54.7015 67.696999 86.467499 95.193001">Retrain</tspan></text>
</g><g
           transform="translate(498.8637,346.8471)"
           id="g110"><text
             id="text114"
             style="font-variant:normal;font-weight:normal;font-size:21px;font-family:Chalkboard;-inkscape-font-specification:Chalkboard;writing-mode:lr-tb;fill:#000000;fill-opacity:1;fill-rule:nonzero;stroke:none"
             transform="scale(1,-1)"><tspan
               id="tspan112"
               y="0"
               x="0 9.5844002 20.6304 32.673901 43.463699 54.717602 65.322601 75.3228 85.904701 91.335297 103.656 112.1946 122.1024 135.1203">Feedback.CI/CD</tspan></text>
</g></g></g><g
       id="g116"><g
         clip-path="url(#clipPath122)"
         id="g118"><g
           transform="translate(919.1095,328.0076)"
           id="g124"><text
             id="text128"
             style="font-variant:normal;font-weight:normal;font-size:35px;font-family:ChalkboardSE;-inkscape-font-specification:ChalkboardSE-Regular;writing-mode:lr-tb;fill:#000000;fill-opacity:1;fill-rule:nonzero;stroke:none"
             transform="scale(1,-1)"><tspan
               id="tspan126"
               y="0"
               x="0 29.931999 47.859001 66.346001 72.547997 87.010002 104.622">Monitor</tspan></text>
</g><g
           transform="translate(896.6863,296.8619)"
           id="g130"><text
             id="text134"
             style="font-variant:normal;font-weight:normal;font-size:21px;font-family:Chalkboard;-inkscape-font-specification:Chalkboard;writing-mode:lr-tb;fill:#000000;fill-opacity:1;fill-rule:nonzero;stroke:none"
             transform="scale(1,-1)"><tspan
               id="tspan132"
               y="0"
               x="0 10.2564 20.0718 28.633499 39.679501 50.400002 60.7719 69.892197 76.087196 89.453697 99.199799 103.446 111.7305 118.923 124.3536 136.6743 147.11549 155.1669">Latency.Drift.Cost</tspan></text>
</g></g></g><g
       id="g136"><g
         clip-path="url(#clipPath142)"
         id="g138"><g
           transform="translate(1331.578,403.411)"
           id="g144"><text
             id="text148"
             style="font-variant:normal;font-weight:normal;font-size:35px;font-family:ChalkboardSE;-inkscape-font-specification:ChalkboardSE-Regular;writing-mode:lr-tb;fill:#000000;fill-opacity:1;fill-rule:nonzero;stroke:none"
             transform="scale(1,-1)"><tspan
               id="tspan146"
               y="0"
               x="0 21.9275 40.915001 59.412498 68.565002 86.2575">Deploy</tspan></text>
</g><g
           transform="translate(1310.798,372.2652)"
           id="g150"><text
             id="text154"
             style="font-variant:normal;font-weight:normal;font-size:21px;font-family:Chalkboard;-inkscape-font-specification:Chalkboard;writing-mode:lr-tb;fill:#000000;fill-opacity:1;fill-rule:nonzero;stroke:none"
             transform="scale(1,-1)"><tspan
               id="tspan152"
               y="0"
               x="0 11.9742 17.1486 28.240801 39.2868 48.846001 62.792099 71.517601 82.563599 93.609596 104.3301 110.5251 124.0764 134.589">Blue/Green.A/B</tspan></text>
</g></g></g><g
       id="g156"><g
         clip-path="url(#clipPath162)"
         id="g158"><g
           transform="translate(1438.99,583.5511)"
           id="g164"><text
             id="text168"
             style="font-variant:normal;font-weight:normal;font-size:35px;font-family:ChalkboardSE;-inkscape-font-specification:ChalkboardSE-Regular;writing-mode:lr-tb;fill:#000000;fill-opacity:1;fill-rule:nonzero;stroke:none"
             transform="scale(1,-1)"><tspan
               id="tspan166"
               y="0"
               x="0 21.8505 40.260502 59.9445 68.683998 82.102997 98.115501 114.7055">Registry</tspan></text>
</g><g
           transform="translate(1432.326,552.4053)"
           id="g170"><text
             id="text174"
             style="font-variant:normal;font-weight:normal;font-size:21px;font-family:Chalkboard;-inkscape-font-specification:Chalkboard;writing-mode:lr-tb;fill:#000000;fill-opacity:1;fill-rule:nonzero;stroke:none"
             transform="scale(1,-1)"><tspan
               id="tspan172"
               y="0"
               x="0 17.9592 29.2362 40.026001 51.071999 57.384602 65.1819 71.3769 83.210403 92.097603 102.9798 118.4568 128.13361 137.7411">Models.Prompts</tspan></text>
</g></g></g><g
       id="g176"><g
         clip-path="url(#clipPath182)"
         id="g178"><g
           transform="translate(1330.579,763.2016)"
           id="g184"><text
             id="text188"
             style="font-variant:normal;font-weight:normal;font-size:35px;font-family:ChalkboardSE;-inkscape-font-specification:ChalkboardSE-Regular;writing-mode:lr-tb;fill:#000000;fill-opacity:1;fill-rule:nonzero;stroke:none"
             transform="scale(1,-1)"><tspan
               id="tspan186"
               y="0"
               x="0 19.145 33.529999 52.016998 62.537998">Evals</tspan></text>
</g><g
           transform="translate(1293.521,732.0558)"
           id="g190"><text
             id="text194"
             style="font-variant:normal;font-weight:normal;font-size:21px;font-family:Chalkboard;-inkscape-font-specification:Chalkboard;writing-mode:lr-tb;fill:#000000;fill-opacity:1;fill-rule:nonzero;stroke:none"
             transform="scale(1,-1)"><tspan
               id="tspan192"
               y="0"
               x="0 13.8075 24.8997 28.612499 35.805 42 51.930901 63.441002 72.489899 83.0718 89.2668 101.6106 112.1694 120.7542 130.87199 140.47951">Unit.Task.Safety</tspan></text>
</g></g></g><g
       id="g196"><g
         clip-path="url(#clipPath202)"
         id="g198"><path
           id="path204"
           style="fill:#00a1ff;fill-opacity:0.49730003;fill-rule:nonzero;stroke:none"
           d="m 827.1126,904.0431 h 265.7744 c 6.729,0 10.767,0 13.458,-1.1236 3.88,-1.4123 6.937,-4.4687 8.349,-8.3488 1.123,-2.6915 1.123,-6.7288 1.123,-13.4576 v -78.2749 c 0,-6.7288 0,-10.766 -1.123,-13.4576 -1.412,-3.88 -4.469,-6.9365 -8.349,-8.3487 -2.691,-1.1237 -6.729,-1.1237 -13.458,-1.1237 H 827.1126 c -6.7288,0 -10.7661,0 -13.4576,1.1237 -3.88,1.4122 -6.9365,4.4687 -8.3487,8.3487 -1.1237,2.6916 -1.1237,6.7288 -1.1237,13.4576 v 78.2749 c 0,6.7288 0,10.7661 1.1237,13.4576 1.4122,3.8801 4.4687,6.9365 8.3487,8.3488 2.6915,1.1236 6.7288,1.1236 13.4576,1.1236 z" /></g></g><g
       id="g206"><g
         clip-path="url(#clipPath212)"
         id="g208"><g
           transform="translate(908.5829,840.7009)"
           id="g214"><text
             id="text218"
             style="font-variant:normal;font-weight:normal;font-size:35px;font-family:ChalkboardSE;-inkscape-font-specification:ChalkboardSE-Regular;writing-mode:lr-tb;fill:#000000;fill-opacity:1;fill-rule:nonzero;stroke:none"
             transform="scale(1,-1)"><tspan
               id="tspan216"
               y="0"
               x="0 19.918501 41.762001 64.3405 79.848999">TRAIN</tspan></text>
</g><g
           transform="translate(883.9127,809.5551)"
           id="g220"><text
             id="text224"
             style="font-variant:normal;font-weight:normal;font-size:21px;font-family:Chalkboard;-inkscape-font-specification:Chalkboard;writing-mode:lr-tb;fill:#000000;fill-opacity:1;fill-rule:nonzero;stroke:none"
             transform="scale(1,-1)"><tspan
               id="tspan222"
               y="0"
               x="0 10.8822 21.115499 34.2258 47.289902 53.484901 65.828697 76.967102 86.1567 92.3517 102.3288 113.7213 124.8135 130.05721 141.1032">LoRA.SFT.Tuning</tspan></text>
</g></g></g><g
       id="g226"><g
         clip-path="url(#clipPath232)"
         id="g228"><g
           transform="translate(540.8235,763.2016)"
           id="g234"><text
             id="text238"
             style="font-variant:normal;font-weight:normal;font-size:35px;font-family:ChalkboardSE;-inkscape-font-specification:ChalkboardSE-Regular;writing-mode:lr-tb;fill:#000000;fill-opacity:1;fill-rule:nonzero;stroke:none"
             transform="scale(1,-1)"><tspan
               id="tspan236"
               y="0"
               x="0 22.2775 38.639999 51.852501">Data</tspan></text>
</g><g
           transform="translate(499.6627,732.0558)"
           id="g240"><text
             id="text244"
             style="font-variant:normal;font-weight:normal;font-size:21px;font-family:Chalkboard;-inkscape-font-specification:Chalkboard;writing-mode:lr-tb;fill:#000000;fill-opacity:1;fill-rule:nonzero;stroke:none"
             transform="scale(1,-1)"><tspan
               id="tspan242"
               y="0"
               x="0 15.9642 27.0564 38.148602 43.533001 47.2458 56.853298 65.973602 72.168602 81.752998 92.799004 102.6144 112.2219 123.6375 132.36301 143.89619">Quality.Features</tspan></text>
</g></g></g><g
       id="g246"><g
         clip-path="url(#clipPath252)"
         id="g248"><g
           id="g254" /><g
           id="g278"><g
             style="opacity:0.40330003"
             id="g276"
             clip-path="url(#clipPath258)"><g
               id="g264" /><g
               id="g274"><g
                 id="g272"
                 clip-path="url(#clipPath262)"><g
                   id="g268"
                   transform="matrix(1,0,0,-1,463.9485,498.3731)"><path
                     id="path266"
                     style="fill:none;stroke:#000000;stroke-width:10;stroke-linecap:butt;stroke-linejoin:miter;stroke-miterlimit:4;stroke-dasharray:none;stroke-opacity:1"
                     d="M 54.81224,62.60043 25.29715,28.89159 22.00241,25.12874" /></g><path
                   id="path270"
                   style="fill:#000000;fill-opacity:1;fill-rule:nonzero;stroke:none"
                   d="m 503.6899,482.1306 -39.7414,16.2425 10.8509,-41.5386 z" /></g></g></g></g></g></g><g
       id="g280"><g
         clip-path="url(#clipPath286)"
         id="g282"><g
           id="g288" /><g
           id="g312"><g
             style="opacity:0.4018"
             id="g310"
             clip-path="url(#clipPath292)"><g
               id="g298" /><g
               id="g308"><g
                 id="g306"
                 clip-path="url(#clipPath296)"><g
                   id="g302"
                   transform="matrix(1,0,0,-1,433.6458,704.4134)"><path
                     id="path300"
                     style="fill:none;stroke:#000000;stroke-width:10;stroke-linecap:butt;stroke-linejoin:miter;stroke-miterlimit:4;stroke-dasharray:none;stroke-opacity:1"
                     d="M 0,78.94088 42.49281,29.19849 45.7417,25.39537" /></g><path
                   id="path304"
                   style="fill:#000000;fill-opacity:1;fill-rule:nonzero;stroke:none"
                   d="m 490.7384,662.7454 10.3432,41.668 -39.5403,-16.7262 z" /></g></g></g></g></g></g><g
       id="g314"><g
         clip-path="url(#clipPath320)"
         id="g316"><g
           id="g322" /><g
           id="g346"><g
             style="opacity:0.39889999"
             id="g344"
             clip-path="url(#clipPath326)"><g
               id="g332" /><g
               id="g342"><g
                 id="g340"
                 clip-path="url(#clipPath330)"><g
                   id="g336"
                   transform="matrix(1,0,0,-1,633.9614,865.7492)"><path
                     id="path334"
                     style="fill:none;stroke:#000000;stroke-width:10;stroke-linecap:butt;stroke-linejoin:miter;stroke-miterlimit:4;stroke-dasharray:none;stroke-opacity:1"
                     d="M 0,38.91203 C 36.4284,12.08666 79.47511,-0.8689495 129.1401,0.04518714 l 4.9829,0.42358406" /></g><path
                   id="path338"
                   style="fill:#000000;fill-opacity:1;fill-rule:nonzero;stroke:none"
                   d="m 761.4761,846.5729 39.8883,15.8784 -36.6358,22.3836 z" /></g></g></g></g></g></g><g
       id="g348"><g
         clip-path="url(#clipPath354)"
         id="g350"><g
           id="g356" /><g
           id="g380"><g
             style="opacity:0.4077"
             id="g378"
             clip-path="url(#clipPath360)"><g
               id="g366" /><g
               id="g376"><g
                 id="g374"
                 clip-path="url(#clipPath364)"><g
                   id="g370"
                   transform="matrix(1,0,0,-1,1137.749,387.6083)"><path
                     id="path368"
                     style="fill:none;stroke:#000000;stroke-width:10;stroke-linecap:butt;stroke-linejoin:miter;stroke-miterlimit:4;stroke-dasharray:none;stroke-opacity:1"
                     d="m 95.15779,0 -61.65158,34.55328 -4.37,2.44975" /></g><path
                   id="path372"
                   style="fill:#000000;fill-opacity:1;fill-rule:nonzero;stroke:none"
                   d="m 1161.86,369.7987 -24.111,-35.5226 42.885,2.0247 z" /></g></g></g></g></g></g><g
       id="g382"><g
         clip-path="url(#clipPath388)"
         id="g384"><g
           id="g390" /><g
           id="g414"><g
             style="opacity:0.40079998"
             id="g412"
             clip-path="url(#clipPath394)"><g
               id="g400" /><g
               id="g410"><g
                 id="g408"
                 clip-path="url(#clipPath398)"><g
                   id="g404"
                   transform="matrix(1,0,0,-1,1424.665,519.9658)"><path
                     id="path402"
                     style="fill:none;stroke:#000000;stroke-width:10;stroke-linecap:butt;stroke-linejoin:miter;stroke-miterlimit:4;stroke-dasharray:none;stroke-opacity:1"
                     d="m 35.20387,0 -14.5363,22.76949 -2.69501,4.2212" /></g><path
                   id="path406"
                   style="fill:#000000;fill-opacity:1;fill-rule:nonzero;stroke:none"
                   d="m 1429.145,507.521 -4.48,-42.6981 36.847,22.0351 z" /></g></g></g></g></g></g><g
       id="g416"><g
         clip-path="url(#clipPath422)"
         id="g418"><g
           id="g424" /><g
           id="g448"><g
             style="opacity:0.40290001"
             id="g446"
             clip-path="url(#clipPath428)"><g
               id="g434" /><g
               id="g444"><g
                 id="g442"
                 clip-path="url(#clipPath432)"><g
                   id="g438"
                   transform="matrix(1,0,0,-1,731.0029,367.6064)"><path
                     id="path436"
                     style="fill:none;stroke:#000000;stroke-width:10;stroke-linecap:butt;stroke-linejoin:miter;stroke-miterlimit:4;stroke-dasharray:none;stroke-opacity:1"
                     d="M 91.15779,40.66781 35.07791,15.64915 30.50225,13.60783" /></g><path
                   id="path440"
                   style="fill:#000000;fill-opacity:1;fill-rule:nonzero;stroke:none"
                   d="m 773.8938,369.4957 -42.8909,-1.8893 27.246,-33.1792 z" /></g></g></g></g></g></g><g
       id="g450"><g
         clip-path="url(#clipPath456)"
         id="g452"><g
           id="g458" /><g
           id="g482"><g
             style="opacity:0.40450003"
             id="g480"
             clip-path="url(#clipPath462)"><g
               id="g468" /><g
               id="g478"><g
                 id="g476"
                 clip-path="url(#clipPath466)"><g
                   id="g472"
                   transform="matrix(1,0,0,-1,1118.399,871.7898)"><path
                     id="path470"
                     style="fill:none;stroke:#000000;stroke-width:10;stroke-linecap:butt;stroke-linejoin:miter;stroke-miterlimit:4;stroke-dasharray:none;stroke-opacity:1"
                     d="m 0,0 77.01798,44.73386 4.33161,2.51631" /></g><path
                   id="path474"
                   style="fill:#000000;fill-opacity:1;fill-rule:nonzero;stroke:none"
                   d="m 1185.782,810.4481 42.848,-2.6833 -23.562,35.8888 z" /></g></g></g></g></g></g><g
       id="g484"><g
         clip-path="url(#clipPath490)"
         id="g486"><g
           id="g492" /><g
           id="g516"><g
             style="opacity:0.40430005"
             id="g514"
             clip-path="url(#clipPath496)"><g
               id="g502" /><g
               id="g512"><g
                 id="g510"
                 clip-path="url(#clipPath500)"><g
                   id="g506"
                   transform="matrix(1,0,0,-1,1416.271,702.6151)"><path
                     id="path504"
                     style="fill:none;stroke:#000000;stroke-width:10;stroke-linecap:butt;stroke-linejoin:miter;stroke-miterlimit:4;stroke-dasharray:none;stroke-opacity:1"
                     d="m 0,0 23.38729,29.1179 3.13316,3.90077" /></g><path
                   id="path508"
                   style="fill:#000000;fill-opacity:1;fill-rule:nonzero;stroke:none"
                   d="m 1424.691,661.4715 39.016,-17.9155 -9.077,41.962 z" /></g></g></g></g></g></g><g
       id="g518"><g
         clip-path="url(#clipPath524)"
         id="g520"><path
           id="path526"
           style="fill:#00a1ff;fill-opacity:0.49550003;fill-rule:nonzero;stroke:none"
           d="m 266.2388,624.8013 h 265.7749 c 6.7288,0 10.7661,0 13.4576,-1.1237 3.88,-1.4122 6.9365,-4.4687 8.3487,-8.3487 1.1237,-2.6915 1.1237,-6.7288 1.1237,-13.4576 v -78.2749 c 0,-6.7288 0,-10.7661 -1.1237,-13.4576 -1.4122,-3.88 -4.4687,-6.9365 -8.3487,-8.3487 -2.6915,-1.1237 -6.7288,-1.1237 -13.4576,-1.1237 H 266.2388 c -6.7288,0 -10.766,0 -13.4576,1.1237 -3.88,1.4122 -6.9365,4.4687 -8.3487,8.3487 -1.1237,2.6915 -1.1237,6.7288 -1.1237,13.4576 v 78.2749 c 0,6.7288 0,10.7661 1.1237,13.4576 1.4122,3.88 4.4687,6.9365 8.3487,8.3487 2.6916,1.1237 6.7288,1.1237 13.4576,1.1237 z" /></g></g><g
       id="g528"><g
         clip-path="url(#clipPath534)"
         id="g530"><g
           transform="translate(343.861,561.4591)"
           id="g536"><text
             id="text540"
             style="font-variant:normal;font-weight:normal;font-size:35px;font-family:ChalkboardSE;-inkscape-font-specification:ChalkboardSE-Regular;writing-mode:lr-tb;fill:#000000;fill-opacity:1;fill-rule:nonzero;stroke:none"
             transform="scale(1,-1)"><tspan
               id="tspan538"
               y="0"
               x="0 23.2435 41.376999 57.3755 76.558998 92.662498">Govern</tspan></text>
</g><g
           transform="translate(326.6472,530.3133)"
           id="g542"><text
             id="text546"
             style="font-variant:normal;font-weight:normal;font-size:21px;font-family:Chalkboard;-inkscape-font-specification:Chalkboard;writing-mode:lr-tb;fill:#000000;fill-opacity:1;fill-rule:nonzero;stroke:none"
             transform="scale(1,-1)"><tspan
               id="tspan544"
               y="0"
               x="0 13.5744 24.666599 35.271599 44.158798 55.041 63.672001 74.764198 81.076797 88.8741 95.069099 108.6435 120.8487 131.6385 135.3513">Approvals.Audit</tspan></text>
</g></g></g></g></svg>